<svg xmlns="http://www.w3.org/2000/svg" xmlns:xlink="http://www.w3.org/1999/xlink" xmlns:s="https://github.com/nturley/netlistsvg" width="442" height="227.5">
  <style>svg {
    stroke:#000;
    fill:none;
  }
  text {
    fill:#000;
    stroke:none;
    font-size:10px;
    font-weight: bold;
    font-family: "Courier New", monospace;
  }
  .nodelabel {
    text-anchor: middle;
  }
  .inputPortLabel {
    text-anchor: end;
  }
  .splitjoinBody {
    fill:#000;
  }</style>
  <g s:type="not" transform="translate(213,12)" s:width="30" s:height="20" id="cell_$abc$122$auto$blifparse.cc:397:parse_blif$123">
    <s:alias val="$_NOT_"/>
    <s:alias val="$not"/>
    <s:alias val="$logic_not"/>
    <path d="M0,0 L0,20 L20,10 Z" class="cell_$abc$122$auto$blifparse.cc:397:parse_blif$123"/>
    <circle cx="23" cy="10" r="3" class="cell_$abc$122$auto$blifparse.cc:397:parse_blif$123"/>
    <g s:x="0" s:y="10" s:pid="A"/>
    <g s:x="25" s:y="10" s:pid="Y"/>
  </g>
  <g s:type="reduce_nor" transform="translate(139,59.5)" s:width="33" s:height="25" id="cell_$abc$122$auto$blifparse.cc:397:parse_blif$124">
    <s:alias val="$nor"/>
    <s:alias val="$reduce_nor"/>
    <s:alias val="$_NOR_"/>
    <s:alias val="$_ORNOT_"/>
    <path d="M0,25 L0,25 L15,25 A15 12.5 0 0 0 15,0 L0,0" class="cell_$abc$122$auto$blifparse.cc:397:parse_blif$124"/>
    <path d="M0,0 A30 25 0 0 1 0,25" class="cell_$abc$122$auto$blifparse.cc:397:parse_blif$124"/>
    <circle cx="34" cy="12.5" r="3" class="cell_$abc$122$auto$blifparse.cc:397:parse_blif$124"/>
    <g s:x="3" s:y="5" s:pid="A"/>
    <g s:x="3" s:y="20" s:pid="B"/>
    <g s:x="36" s:y="12.5" s:pid="Y"/>
  </g>
  <g s:type="or" transform="translate(212,67)" s:width="30" s:height="25" id="cell_$abc$122$auto$blifparse.cc:397:parse_blif$125">
    <s:alias val="$or"/>
    <s:alias val="$logic_or"/>
    <s:alias val="$_OR_"/>
    <path d="M0,25 L0,25 L15,25 A15 12.5 0 0 0 15,0 L0,0" class="cell_$abc$122$auto$blifparse.cc:397:parse_blif$125"/>
    <path d="M0,0 A30 25 0 0 1 0,25" class="cell_$abc$122$auto$blifparse.cc:397:parse_blif$125"/>
    <g s:x="3" s:y="5" s:pid="A"/>
    <g s:x="3" s:y="20" s:pid="B"/>
    <g s:x="30" s:y="12.5" s:pid="Y"/>
  </g>
  <g s:type="nand" transform="translate(281,17)" s:width="30" s:height="25" id="cell_$abc$122$auto$blifparse.cc:397:parse_blif$126">
    <s:alias val="$nand"/>
    <s:alias val="$logic_nand"/>
    <s:alias val="$_NAND_"/>
    <s:alias val="$_ANDNOT_"/>
    <path d="M0,0 L0,25 L15,25 A15 12.5 0 0 0 15,0 Z" class="cell_$abc$122$auto$blifparse.cc:397:parse_blif$126"/>
    <circle cx="34" cy="12.5" r="3" class="cell_$abc$122$auto$blifparse.cc:397:parse_blif$126"/>
    <g s:x="0" s:y="5" s:pid="A"/>
    <g s:x="0" s:y="20" s:pid="B"/>
    <g s:x="36" s:y="12.5" s:pid="Y"/>
  </g>
  <g s:type="reduce_nor" transform="translate(210,127)" s:width="33" s:height="25" id="cell_$abc$122$auto$blifparse.cc:397:parse_blif$127">
    <s:alias val="$nor"/>
    <s:alias val="$reduce_nor"/>
    <s:alias val="$_NOR_"/>
    <s:alias val="$_ORNOT_"/>
    <path d="M0,25 L0,25 L15,25 A15 12.5 0 0 0 15,0 L0,0" class="cell_$abc$122$auto$blifparse.cc:397:parse_blif$127"/>
    <path d="M0,0 A30 25 0 0 1 0,25" class="cell_$abc$122$auto$blifparse.cc:397:parse_blif$127"/>
    <circle cx="34" cy="12.5" r="3" class="cell_$abc$122$auto$blifparse.cc:397:parse_blif$127"/>
    <g s:x="3" s:y="5" s:pid="A"/>
    <g s:x="3" s:y="20" s:pid="B"/>
    <g s:x="36" s:y="12.5" s:pid="Y"/>
  </g>
  <g s:type="nand" transform="translate(281,119.5)" s:width="30" s:height="25" id="cell_$abc$122$auto$blifparse.cc:397:parse_blif$128">
    <s:alias val="$nand"/>
    <s:alias val="$logic_nand"/>
    <s:alias val="$_NAND_"/>
    <s:alias val="$_ANDNOT_"/>
    <path d="M0,0 L0,25 L15,25 A15 12.5 0 0 0 15,0 Z" class="cell_$abc$122$auto$blifparse.cc:397:parse_blif$128"/>
    <circle cx="34" cy="12.5" r="3" class="cell_$abc$122$auto$blifparse.cc:397:parse_blif$128"/>
    <g s:x="0" s:y="5" s:pid="A"/>
    <g s:x="0" s:y="20" s:pid="B"/>
    <g s:x="36" s:y="12.5" s:pid="Y"/>
  </g>
  <g s:type="nand" transform="translate(281,179.5)" s:width="30" s:height="25" id="cell_$abc$122$auto$blifparse.cc:397:parse_blif$129">
    <s:alias val="$nand"/>
    <s:alias val="$logic_nand"/>
    <s:alias val="$_NAND_"/>
    <s:alias val="$_ANDNOT_"/>
    <path d="M0,0 L0,25 L15,25 A15 12.5 0 0 0 15,0 Z" class="cell_$abc$122$auto$blifparse.cc:397:parse_blif$129"/>
    <circle cx="34" cy="12.5" r="3" class="cell_$abc$122$auto$blifparse.cc:397:parse_blif$129"/>
    <g s:x="0" s:y="5" s:pid="A"/>
    <g s:x="0" s:y="20" s:pid="B"/>
    <g s:x="36" s:y="12.5" s:pid="Y"/>
  </g>
  <g s:type="inputExt" transform="translate(12,72)" s:width="30" s:height="20" id="cell_u">
    <text x="15" y="-4" class="nodelabel cell_u" s:attribute="ref">u</text>
    <s:alias val="$_inputExt_"/>
    <path d="M0,0 L0,20 L15,20 L30,10 L15,0 Z" class="cell_u"/>
    <g s:x="28" s:y="10" s:pid="Y"/>
  </g>
  <g s:type="outputExt" transform="translate(400,29.5)" s:width="30" s:height="20" id="cell_y">
    <text x="15" y="-4" class="nodelabel cell_y" s:attribute="ref">y</text>
    <s:alias val="$_outputExt_"/>
    <path d="M30,0 L30,20 L15,20 L0,10 L15,0 Z" class="cell_y"/>
    <g s:x="0" s:y="10" s:pid="A"/>
  </g>
  <g s:type="join" transform="translate(359,19)" s:width="4" s:height="40" id="cell_$join$,6,7,8,5,">
    <rect width="5" height="80" class="splitjoinBody" s:generic="body"/>
    <s:alias val="$_join_"/>
    <g s:x="5" s:y="20" s:pid="out"/>
    <g transform="translate(0,10)" s:x="0" s:y="10" s:pid="in0">
      <text x="-3" y="-4" class="inputPortLabel">0</text>
    </g>
    <g transform="translate(0,30)" s:x="0" s:y="10" s:pid="in0">
      <text x="-3" y="-4" class="inputPortLabel">1</text>
    </g>
    <g transform="translate(0,50)" s:x="0" s:y="10" s:pid="in0">
      <text x="-3" y="-4" class="inputPortLabel">2</text>
    </g>
    <g transform="translate(0,70)" s:x="0" s:y="10" s:pid="in0">
      <text x="-3" y="-4" class="inputPortLabel">3</text>
    </g>
  </g>
  <g s:type="split" transform="translate(77,61.5)" s:width="5" s:height="40" id="cell_$split$,2,3,4,5,">
    <rect width="5" height="80" class="splitjoinBody" s:generic="body"/>
    <s:alias val="$_split_"/>
    <g s:x="0" s:y="20" s:pid="in"/>
    <g transform="translate(4,10)" s:x="4" s:y="10" s:pid="out0">
      <text x="5" y="-4">3</text>
    </g>
    <g transform="translate(4,30)" s:x="4" s:y="10" s:pid="out0">
      <text x="5" y="-4">1</text>
    </g>
    <g transform="translate(4,50)" s:x="4" s:y="10" s:pid="out0">
      <text x="5" y="-4">0</text>
    </g>
    <g transform="translate(4,70)" s:x="4" s:y="10" s:pid="out0">
      <text x="5" y="-4">2</text>
    </g>
  </g>
  <line x1="82" x2="99" y1="72" y2="72" class="net_5"/>
  <line x1="99" x2="99" y1="72" y2="22" class="net_5"/>
  <circle cx="99" cy="72" r="2" style="fill:#000" class="net_5"/>
  <line x1="99" x2="213" y1="22" y2="22" class="net_5"/>
  <line x1="82" x2="99" y1="72" y2="72" class="net_5"/>
  <line x1="99" x2="99" y1="72" y2="214.5" class="net_5"/>
  <line x1="99" x2="256" y1="214.5" y2="214.5" class="net_5"/>
  <line x1="256" x2="256" y1="214.5" y2="199.5" class="net_5"/>
  <circle cx="256" cy="214.5" r="2" style="fill:#000" class="net_5"/>
  <line x1="256" x2="281" y1="199.5" y2="199.5" class="net_5"/>
  <line x1="82" x2="99" y1="72" y2="72" class="net_5"/>
  <line x1="99" x2="99" y1="72" y2="214.5" class="net_5"/>
  <line x1="99" x2="359.5" y1="214.5" y2="214.5" class="net_5"/>
  <line x1="359.5" x2="359.5" y1="214.5" y2="90" class="net_5"/>
  <line x1="82" x2="119" y1="92" y2="92" class="net_3"/>
  <line x1="119" x2="119" y1="92" y2="64.5" class="net_3"/>
  <circle cx="119" cy="92" r="2" style="fill:#000" class="net_3"/>
  <line x1="119" x2="142" y1="64.5" y2="64.5" class="net_3"/>
  <line x1="82" x2="119" y1="92" y2="92" class="net_3"/>
  <line x1="119" x2="119" y1="92" y2="147" class="net_3"/>
  <line x1="119" x2="213" y1="147" y2="147" class="net_3"/>
  <line x1="82" x2="129" y1="112" y2="112" class="net_2"/>
  <line x1="129" x2="129" y1="112" y2="79.5" class="net_2"/>
  <line x1="129" x2="142" y1="79.5" y2="79.5" class="net_2"/>
  <line x1="175" x2="215" y1="72" y2="72" class="net_10"/>
  <line x1="82" x2="185" y1="132" y2="132" class="net_4"/>
  <line x1="185" x2="185" y1="132" y2="87" class="net_4"/>
  <circle cx="185" cy="132" r="2" style="fill:#000" class="net_4"/>
  <line x1="185" x2="215" y1="87" y2="87" class="net_4"/>
  <line x1="82" x2="213" y1="132" y2="132" class="net_4"/>
  <line x1="82" x2="109" y1="132" y2="132" class="net_4"/>
  <line x1="109" x2="109" y1="132" y2="184.5" class="net_4"/>
  <circle cx="109" cy="132" r="2" style="fill:#000" class="net_4"/>
  <line x1="109" x2="281" y1="184.5" y2="184.5" class="net_4"/>
  <line x1="238" x2="281" y1="22" y2="22" class="net_9"/>
  <line x1="238" x2="266" y1="22" y2="22" class="net_9"/>
  <line x1="266" x2="266" y1="22" y2="124.5" class="net_9"/>
  <circle cx="266" cy="22" r="2" style="fill:#000" class="net_9"/>
  <line x1="266" x2="281" y1="124.5" y2="124.5" class="net_9"/>
  <line x1="242" x2="256" y1="79.5" y2="79.5" class="net_11"/>
  <line x1="256" x2="256" y1="79.5" y2="37" class="net_11"/>
  <line x1="256" x2="281" y1="37" y2="37" class="net_11"/>
  <line x1="246" x2="281" y1="139.5" y2="139.5" class="net_12"/>
  <line x1="365" x2="400" y1="39.5" y2="39.5" class="net_6,7,8,5"/>
  <line x1="317" x2="359" y1="29.5" y2="29.5" class="net_6"/>
  <line x1="317" x2="327" y1="132" y2="132" class="net_7"/>
  <line x1="327" x2="327" y1="132" y2="49.5" class="net_7"/>
  <line x1="327" x2="359" y1="49.5" y2="49.5" class="net_7"/>
  <line x1="317" x2="337" y1="192" y2="192" class="net_8"/>
  <line x1="337" x2="337" y1="192" y2="69.5" class="net_8"/>
  <line x1="337" x2="359" y1="69.5" y2="69.5" class="net_8"/>
  <line x1="40" x2="77" y1="82" y2="82" class="net_2,3,4,5"/>
</svg>
