<svg xmlns="http://www.w3.org/2000/svg" xmlns:xlink="http://www.w3.org/1999/xlink" xmlns:s="https://github.com/nturley/netlistsvg" width="356" height="337.5">
  <style>svg {
    stroke:#000;
    fill:none;
  }
  text {
    fill:#000;
    stroke:none;
    font-size:10px;
    font-weight: bold;
    font-family: "Courier New", monospace;
  }
  .nodelabel {
    text-anchor: middle;
  }
  .inputPortLabel {
    text-anchor: end;
  }
  .splitjoinBody {
    fill:#000;
  }</style>
  <g s:type="and" transform="translate(126,19.5)" s:width="30" s:height="25" id="cell_$abc$181$auto$blifparse.cc:397:parse_blif$182">
    <s:alias val="$and"/>
    <s:alias val="$logic_and"/>
    <s:alias val="$_AND_"/>
    <path d="M0,0 L0,25 L15,25 A15 12.5 0 0 0 15,0 Z" class="cell_$abc$181$auto$blifparse.cc:397:parse_blif$182"/>
    <g s:x="0" s:y="5" s:pid="A"/>
    <g s:x="0" s:y="20" s:pid="B"/>
    <g s:x="30" s:y="12.5" s:pid="Y"/>
  </g>
  <g s:type="nand" transform="translate(124,85.5)" s:width="30" s:height="25" id="cell_$abc$181$auto$blifparse.cc:397:parse_blif$183">
    <s:alias val="$nand"/>
    <s:alias val="$logic_nand"/>
    <s:alias val="$_NAND_"/>
    <s:alias val="$_ANDNOT_"/>
    <path d="M0,0 L0,25 L15,25 A15 12.5 0 0 0 15,0 Z" class="cell_$abc$181$auto$blifparse.cc:397:parse_blif$183"/>
    <circle cx="34" cy="12.5" r="3" class="cell_$abc$181$auto$blifparse.cc:397:parse_blif$183"/>
    <g s:x="0" s:y="5" s:pid="A"/>
    <g s:x="0" s:y="20" s:pid="B"/>
    <g s:x="36" s:y="12.5" s:pid="Y"/>
  </g>
  <g s:type="or" transform="translate(197,12)" s:width="30" s:height="25" id="cell_$abc$181$auto$blifparse.cc:397:parse_blif$184">
    <s:alias val="$or"/>
    <s:alias val="$logic_or"/>
    <s:alias val="$_OR_"/>
    <path d="M0,25 L0,25 L15,25 A15 12.5 0 0 0 15,0 L0,0" class="cell_$abc$181$auto$blifparse.cc:397:parse_blif$184"/>
    <path d="M0,0 A30 25 0 0 1 0,25" class="cell_$abc$181$auto$blifparse.cc:397:parse_blif$184"/>
    <g s:x="3" s:y="5" s:pid="A"/>
    <g s:x="3" s:y="20" s:pid="B"/>
    <g s:x="30" s:y="12.5" s:pid="Y"/>
  </g>
  <g s:type="reduce_nor" transform="translate(124,145.5)" s:width="33" s:height="25" id="cell_$abc$181$auto$blifparse.cc:397:parse_blif$185">
    <s:alias val="$nor"/>
    <s:alias val="$reduce_nor"/>
    <s:alias val="$_NOR_"/>
    <s:alias val="$_ORNOT_"/>
    <path d="M0,25 L0,25 L15,25 A15 12.5 0 0 0 15,0 L0,0" class="cell_$abc$181$auto$blifparse.cc:397:parse_blif$185"/>
    <path d="M0,0 A30 25 0 0 1 0,25" class="cell_$abc$181$auto$blifparse.cc:397:parse_blif$185"/>
    <circle cx="34" cy="12.5" r="3" class="cell_$abc$181$auto$blifparse.cc:397:parse_blif$185"/>
    <g s:x="3" s:y="5" s:pid="A"/>
    <g s:x="3" s:y="20" s:pid="B"/>
    <g s:x="36" s:y="12.5" s:pid="Y"/>
  </g>
  <g s:type="or" transform="translate(197,78)" s:width="30" s:height="25" id="cell_$abc$181$auto$blifparse.cc:397:parse_blif$186">
    <s:alias val="$or"/>
    <s:alias val="$logic_or"/>
    <s:alias val="$_OR_"/>
    <path d="M0,25 L0,25 L15,25 A15 12.5 0 0 0 15,0 L0,0" class="cell_$abc$181$auto$blifparse.cc:397:parse_blif$186"/>
    <path d="M0,0 A30 25 0 0 1 0,25" class="cell_$abc$181$auto$blifparse.cc:397:parse_blif$186"/>
    <g s:x="3" s:y="5" s:pid="A"/>
    <g s:x="3" s:y="20" s:pid="B"/>
    <g s:x="30" s:y="12.5" s:pid="Y"/>
  </g>
  <g s:type="reduce_nor" transform="translate(195,235.5)" s:width="33" s:height="25" id="cell_$abc$181$auto$blifparse.cc:397:parse_blif$187">
    <s:alias val="$nor"/>
    <s:alias val="$reduce_nor"/>
    <s:alias val="$_NOR_"/>
    <s:alias val="$_ORNOT_"/>
    <path d="M0,25 L0,25 L15,25 A15 12.5 0 0 0 15,0 L0,0" class="cell_$abc$181$auto$blifparse.cc:397:parse_blif$187"/>
    <path d="M0,0 A30 25 0 0 1 0,25" class="cell_$abc$181$auto$blifparse.cc:397:parse_blif$187"/>
    <circle cx="34" cy="12.5" r="3" class="cell_$abc$181$auto$blifparse.cc:397:parse_blif$187"/>
    <g s:x="3" s:y="5" s:pid="A"/>
    <g s:x="3" s:y="20" s:pid="B"/>
    <g s:x="36" s:y="12.5" s:pid="Y"/>
  </g>
  <g s:type="reduce_nor" transform="translate(195,175.5)" s:width="33" s:height="25" id="cell_$abc$181$auto$blifparse.cc:397:parse_blif$188">
    <s:alias val="$nor"/>
    <s:alias val="$reduce_nor"/>
    <s:alias val="$_NOR_"/>
    <s:alias val="$_ORNOT_"/>
    <path d="M0,25 L0,25 L15,25 A15 12.5 0 0 0 15,0 L0,0" class="cell_$abc$181$auto$blifparse.cc:397:parse_blif$188"/>
    <path d="M0,0 A30 25 0 0 1 0,25" class="cell_$abc$181$auto$blifparse.cc:397:parse_blif$188"/>
    <circle cx="34" cy="12.5" r="3" class="cell_$abc$181$auto$blifparse.cc:397:parse_blif$188"/>
    <g s:x="3" s:y="5" s:pid="A"/>
    <g s:x="3" s:y="20" s:pid="B"/>
    <g s:x="36" s:y="12.5" s:pid="Y"/>
  </g>
  <g s:type="inputExt" transform="translate(12,145.5)" s:width="30" s:height="20" id="cell_u">
    <text x="15" y="-4" class="nodelabel cell_u" s:attribute="ref">u</text>
    <s:alias val="$_inputExt_"/>
    <path d="M0,0 L0,20 L15,20 L30,10 L15,0 Z" class="cell_u"/>
    <g s:x="28" s:y="10" s:pid="Y"/>
  </g>
  <g s:type="outputExt" transform="translate(314,47)" s:width="30" s:height="20" id="cell_y">
    <text x="15" y="-4" class="nodelabel cell_y" s:attribute="ref">y</text>
    <s:alias val="$_outputExt_"/>
    <path d="M30,0 L30,20 L15,20 L0,10 L15,0 Z" class="cell_y"/>
    <g s:x="0" s:y="10" s:pid="A"/>
  </g>
  <g s:type="constant" transform="translate(198,305.5)" s:width="30" s:height="20" id="cell_1">
    <text x="15" y="-4" class="nodelabel cell_1" s:attribute="ref">1</text>
    <s:alias val="$_constant_"/>
    <rect width="30" height="20" class="cell_1"/>
    <g s:x="30" s:y="10" s:pid="Y"/>
  </g>
  <g s:type="join" transform="translate(271,36.5)" s:width="4" s:height="40" id="cell_$join$,4,5,6,7,8,11,7,">
    <rect width="5" height="140" class="splitjoinBody" s:generic="body"/>
    <s:alias val="$_join_"/>
    <g s:x="5" s:y="20" s:pid="out"/>
    <g transform="translate(0,10)" s:x="0" s:y="10" s:pid="in0">
      <text x="-3" y="-4" class="inputPortLabel">0</text>
    </g>
    <g transform="translate(0,30)" s:x="0" s:y="10" s:pid="in0">
      <text x="-3" y="-4" class="inputPortLabel">1</text>
    </g>
    <g transform="translate(0,50)" s:x="0" s:y="10" s:pid="in0">
      <text x="-3" y="-4" class="inputPortLabel">2</text>
    </g>
    <g transform="translate(0,70)" s:x="0" s:y="10" s:pid="in0">
      <text x="-3" y="-4" class="inputPortLabel">3</text>
    </g>
    <g transform="translate(0,90)" s:x="0" s:y="10" s:pid="in0">
      <text x="-3" y="-4" class="inputPortLabel">4</text>
    </g>
    <g transform="translate(0,110)" s:x="0" s:y="10" s:pid="in0">
      <text x="-3" y="-4" class="inputPortLabel">5</text>
    </g>
    <g transform="translate(0,130)" s:x="0" s:y="10" s:pid="in0">
      <text x="-3" y="-4" class="inputPortLabel">6</text>
    </g>
  </g>
  <g s:type="split" transform="translate(77,135)" s:width="5" s:height="40" id="cell_$split$,2,3,">
    <rect width="5" height="40" class="splitjoinBody" s:generic="body"/>
    <s:alias val="$_split_"/>
    <g s:x="0" s:y="20" s:pid="in"/>
    <g transform="translate(4,10)" s:x="4" s:y="10" s:pid="out0">
      <text x="5" y="-4">0</text>
    </g>
    <g transform="translate(4,30)" s:x="4" s:y="10" s:pid="out0">
      <text x="5" y="-4">1</text>
    </g>
  </g>
  <line x1="82" x2="99" y1="145.5" y2="145.5" class="net_2"/>
  <line x1="99" x2="99" y1="145.5" y2="24.5" class="net_2"/>
  <circle cx="99" cy="145.5" r="2" style="fill:#000" class="net_2"/>
  <line x1="99" x2="126" y1="24.5" y2="24.5" class="net_2"/>
  <line x1="82" x2="99" y1="145.5" y2="145.5" class="net_2"/>
  <line x1="99" x2="99" y1="145.5" y2="105.5" class="net_2"/>
  <circle cx="99" cy="105.5" r="2" style="fill:#000" class="net_2"/>
  <line x1="99" x2="124" y1="105.5" y2="105.5" class="net_2"/>
  <line x1="82" x2="99" y1="145.5" y2="145.5" class="net_2"/>
  <line x1="99" x2="99" y1="145.5" y2="150.5" class="net_2"/>
  <circle cx="99" cy="150.5" r="2" style="fill:#000" class="net_2"/>
  <line x1="99" x2="127" y1="150.5" y2="150.5" class="net_2"/>
  <line x1="82" x2="99" y1="145.5" y2="145.5" class="net_2"/>
  <line x1="99" x2="99" y1="145.5" y2="255.5" class="net_2"/>
  <line x1="99" x2="198" y1="255.5" y2="255.5" class="net_2"/>
  <line x1="82" x2="99" y1="145.5" y2="145.5" class="net_2"/>
  <line x1="99" x2="99" y1="145.5" y2="180.5" class="net_2"/>
  <circle cx="99" cy="180.5" r="2" style="fill:#000" class="net_2"/>
  <line x1="99" x2="198" y1="180.5" y2="180.5" class="net_2"/>
  <line x1="82" x2="109" y1="165.5" y2="165.5" class="net_3"/>
  <line x1="109" x2="109" y1="165.5" y2="39.5" class="net_3"/>
  <circle cx="109" cy="165.5" r="2" style="fill:#000" class="net_3"/>
  <line x1="109" x2="126" y1="39.5" y2="39.5" class="net_3"/>
  <line x1="82" x2="109" y1="165.5" y2="165.5" class="net_3"/>
  <line x1="109" x2="109" y1="165.5" y2="90.5" class="net_3"/>
  <circle cx="109" cy="90.5" r="2" style="fill:#000" class="net_3"/>
  <line x1="109" x2="124" y1="90.5" y2="90.5" class="net_3"/>
  <line x1="82" x2="127" y1="165.5" y2="165.5" class="net_3"/>
  <line x1="82" x2="109" y1="165.5" y2="165.5" class="net_3"/>
  <line x1="109" x2="109" y1="165.5" y2="240.5" class="net_3"/>
  <line x1="109" x2="198" y1="240.5" y2="240.5" class="net_3"/>
  <line x1="82" x2="109" y1="165.5" y2="165.5" class="net_3"/>
  <line x1="109" x2="109" y1="165.5" y2="240.5" class="net_3"/>
  <line x1="109" x2="170" y1="240.5" y2="240.5" class="net_3"/>
  <line x1="170" x2="170" y1="240.5" y2="195.5" class="net_3"/>
  <circle cx="170" cy="240.5" r="2" style="fill:#000" class="net_3"/>
  <line x1="170" x2="198" y1="195.5" y2="195.5" class="net_3"/>
  <line x1="160" x2="170" y1="98" y2="98" class="net_10"/>
  <line x1="170" x2="170" y1="98" y2="17" class="net_10"/>
  <circle cx="170" cy="98" r="2" style="fill:#000" class="net_10"/>
  <line x1="170" x2="200" y1="17" y2="17" class="net_10"/>
  <line x1="160" x2="200" y1="98" y2="98" class="net_10"/>
  <line x1="156" x2="200" y1="32" y2="32" class="net_9"/>
  <line x1="160" x2="180" y1="158" y2="158" class="net_5"/>
  <line x1="180" x2="180" y1="158" y2="83" class="net_5"/>
  <circle cx="180" cy="83" r="2" style="fill:#000" class="net_5"/>
  <line x1="180" x2="200" y1="83" y2="83" class="net_5"/>
  <line x1="160" x2="180" y1="158" y2="158" class="net_5"/>
  <line x1="180" x2="180" y1="158" y2="67" class="net_5"/>
  <line x1="180" x2="271" y1="67" y2="67" class="net_5"/>
  <line x1="277" x2="314" y1="57" y2="57" class="net_4,5,6,7,8,11,7"/>
  <line x1="227" x2="271.5" y1="24.5" y2="24.5" class="net_4"/>
  <line x1="271.5" x2="271.5" y1="24.5" y2="46.5" class="net_4"/>
  <line x1="227" x2="241" y1="90.5" y2="90.5" class="net_6"/>
  <line x1="241" x2="241" y1="90.5" y2="87" class="net_6"/>
  <line x1="241" x2="271" y1="87" y2="87" class="net_6"/>
  <line x1="231" x2="251" y1="248" y2="248" class="net_7"/>
  <line x1="251" x2="251" y1="248" y2="107" class="net_7"/>
  <circle cx="251" cy="248" r="2" style="fill:#000" class="net_7"/>
  <line x1="251" x2="271" y1="107" y2="107" class="net_7"/>
  <line x1="231" x2="271.5" y1="248" y2="248" class="net_7"/>
  <line x1="271.5" x2="271.5" y1="248" y2="167.5" class="net_7"/>
  <line x1="231" x2="241" y1="188" y2="188" class="net_8"/>
  <line x1="241" x2="241" y1="188" y2="127" class="net_8"/>
  <line x1="241" x2="271" y1="127" y2="127" class="net_8"/>
  <line x1="228" x2="261" y1="315.5" y2="315.5" class="net_11"/>
  <line x1="261" x2="261" y1="315.5" y2="147" class="net_11"/>
  <line x1="261" x2="271" y1="147" y2="147" class="net_11"/>
  <line x1="40" x2="77" y1="155.5" y2="155.5" class="net_2,3"/>
</svg>
