<svg xmlns="http://www.w3.org/2000/svg" xmlns:xlink="http://www.w3.org/1999/xlink" xmlns:s="https://github.com/nturley/netlistsvg" width="493" height="853">
  <style>svg {
    stroke:#000;
    fill:none;
  }
  text {
    fill:#000;
    stroke:none;
    font-size:10px;
    font-weight: bold;
    font-family: "Courier New", monospace;
  }
  .nodelabel {
    text-anchor: middle;
  }
  .inputPortLabel {
    text-anchor: end;
  }
  .splitjoinBody {
    fill:#000;
  }</style>
  <g s:type="generic" transform="translate(204,22)" s:width="30" s:height="40" id="cell_$auto$ff.cc:266:slice$81">
    <text x="15" y="-4" class="nodelabel cell_$auto$ff.cc:266:slice$81" s:attribute="ref">$_DFF_PP0_</text>
    <rect width="30" height="60" s:generic="body" class="cell_$auto$ff.cc:266:slice$81"/>
    <g transform="translate(0,10)" s:x="0" s:y="10" s:pid="in0" id="port_$auto$ff.cc:266:slice$81~C">
      <text x="-3" y="-4" class="inputPortLabel cell_$auto$ff.cc:266:slice$81">C</text>
    </g>
    <g transform="translate(0,30)" s:x="0" s:y="10" s:pid="in0" id="port_$auto$ff.cc:266:slice$81~D">
      <text x="-3" y="-4" class="inputPortLabel cell_$auto$ff.cc:266:slice$81">D</text>
    </g>
    <g transform="translate(0,50)" s:x="0" s:y="10" s:pid="in0" id="port_$auto$ff.cc:266:slice$81~R">
      <text x="-3" y="-4" class="inputPortLabel cell_$auto$ff.cc:266:slice$81">R</text>
    </g>
    <g transform="translate(30,10)" s:x="30" s:y="10" s:pid="out0" id="port_$auto$ff.cc:266:slice$81~Q">
      <text x="5" y="-4" style="fill:#000; stroke:none" class="cell_$auto$ff.cc:266:slice$81">Q</text>
    </g>
  </g>
  <g s:type="generic" transform="translate(204,130)" s:width="30" s:height="40" id="cell_$auto$ff.cc:266:slice$82">
    <text x="15" y="-4" class="nodelabel cell_$auto$ff.cc:266:slice$82" s:attribute="ref">$_DFF_PP0_</text>
    <rect width="30" height="60" s:generic="body" class="cell_$auto$ff.cc:266:slice$82"/>
    <g transform="translate(0,10)" s:x="0" s:y="10" s:pid="in0" id="port_$auto$ff.cc:266:slice$82~C">
      <text x="-3" y="-4" class="inputPortLabel cell_$auto$ff.cc:266:slice$82">C</text>
    </g>
    <g transform="translate(0,30)" s:x="0" s:y="10" s:pid="in0" id="port_$auto$ff.cc:266:slice$82~D">
      <text x="-3" y="-4" class="inputPortLabel cell_$auto$ff.cc:266:slice$82">D</text>
    </g>
    <g transform="translate(0,50)" s:x="0" s:y="10" s:pid="in0" id="port_$auto$ff.cc:266:slice$82~R">
      <text x="-3" y="-4" class="inputPortLabel cell_$auto$ff.cc:266:slice$82">R</text>
    </g>
    <g transform="translate(30,10)" s:x="30" s:y="10" s:pid="out0" id="port_$auto$ff.cc:266:slice$82~Q">
      <text x="5" y="-4" style="fill:#000; stroke:none" class="cell_$auto$ff.cc:266:slice$82">Q</text>
    </g>
  </g>
  <g s:type="generic" transform="translate(204,238)" s:width="30" s:height="40" id="cell_$auto$ff.cc:266:slice$83">
    <text x="15" y="-4" class="nodelabel cell_$auto$ff.cc:266:slice$83" s:attribute="ref">$_DFF_PP0_</text>
    <rect width="30" height="60" s:generic="body" class="cell_$auto$ff.cc:266:slice$83"/>
    <g transform="translate(0,10)" s:x="0" s:y="10" s:pid="in0" id="port_$auto$ff.cc:266:slice$83~C">
      <text x="-3" y="-4" class="inputPortLabel cell_$auto$ff.cc:266:slice$83">C</text>
    </g>
    <g transform="translate(0,30)" s:x="0" s:y="10" s:pid="in0" id="port_$auto$ff.cc:266:slice$83~D">
      <text x="-3" y="-4" class="inputPortLabel cell_$auto$ff.cc:266:slice$83">D</text>
    </g>
    <g transform="translate(0,50)" s:x="0" s:y="10" s:pid="in0" id="port_$auto$ff.cc:266:slice$83~R">
      <text x="-3" y="-4" class="inputPortLabel cell_$auto$ff.cc:266:slice$83">R</text>
    </g>
    <g transform="translate(30,10)" s:x="30" s:y="10" s:pid="out0" id="port_$auto$ff.cc:266:slice$83~Q">
      <text x="5" y="-4" style="fill:#000; stroke:none" class="cell_$auto$ff.cc:266:slice$83">Q</text>
    </g>
  </g>
  <g s:type="generic" transform="translate(204,346)" s:width="30" s:height="40" id="cell_$auto$ff.cc:266:slice$84">
    <text x="15" y="-4" class="nodelabel cell_$auto$ff.cc:266:slice$84" s:attribute="ref">$_DFF_PP0_</text>
    <rect width="30" height="60" s:generic="body" class="cell_$auto$ff.cc:266:slice$84"/>
    <g transform="translate(0,10)" s:x="0" s:y="10" s:pid="in0" id="port_$auto$ff.cc:266:slice$84~C">
      <text x="-3" y="-4" class="inputPortLabel cell_$auto$ff.cc:266:slice$84">C</text>
    </g>
    <g transform="translate(0,30)" s:x="0" s:y="10" s:pid="in0" id="port_$auto$ff.cc:266:slice$84~D">
      <text x="-3" y="-4" class="inputPortLabel cell_$auto$ff.cc:266:slice$84">D</text>
    </g>
    <g transform="translate(0,50)" s:x="0" s:y="10" s:pid="in0" id="port_$auto$ff.cc:266:slice$84~R">
      <text x="-3" y="-4" class="inputPortLabel cell_$auto$ff.cc:266:slice$84">R</text>
    </g>
    <g transform="translate(30,10)" s:x="30" s:y="10" s:pid="out0" id="port_$auto$ff.cc:266:slice$84~Q">
      <text x="5" y="-4" style="fill:#000; stroke:none" class="cell_$auto$ff.cc:266:slice$84">Q</text>
    </g>
  </g>
  <g s:type="generic" transform="translate(204,454)" s:width="30" s:height="40" id="cell_$auto$ff.cc:266:slice$85">
    <text x="15" y="-4" class="nodelabel cell_$auto$ff.cc:266:slice$85" s:attribute="ref">$_DFF_PP0_</text>
    <rect width="30" height="60" s:generic="body" class="cell_$auto$ff.cc:266:slice$85"/>
    <g transform="translate(0,10)" s:x="0" s:y="10" s:pid="in0" id="port_$auto$ff.cc:266:slice$85~C">
      <text x="-3" y="-4" class="inputPortLabel cell_$auto$ff.cc:266:slice$85">C</text>
    </g>
    <g transform="translate(0,30)" s:x="0" s:y="10" s:pid="in0" id="port_$auto$ff.cc:266:slice$85~D">
      <text x="-3" y="-4" class="inputPortLabel cell_$auto$ff.cc:266:slice$85">D</text>
    </g>
    <g transform="translate(0,50)" s:x="0" s:y="10" s:pid="in0" id="port_$auto$ff.cc:266:slice$85~R">
      <text x="-3" y="-4" class="inputPortLabel cell_$auto$ff.cc:266:slice$85">R</text>
    </g>
    <g transform="translate(30,10)" s:x="30" s:y="10" s:pid="out0" id="port_$auto$ff.cc:266:slice$85~Q">
      <text x="5" y="-4" style="fill:#000; stroke:none" class="cell_$auto$ff.cc:266:slice$85">Q</text>
    </g>
  </g>
  <g s:type="generic" transform="translate(204,562)" s:width="30" s:height="40" id="cell_$auto$ff.cc:266:slice$86">
    <text x="15" y="-4" class="nodelabel cell_$auto$ff.cc:266:slice$86" s:attribute="ref">$_DFF_PP0_</text>
    <rect width="30" height="60" s:generic="body" class="cell_$auto$ff.cc:266:slice$86"/>
    <g transform="translate(0,10)" s:x="0" s:y="10" s:pid="in0" id="port_$auto$ff.cc:266:slice$86~C">
      <text x="-3" y="-4" class="inputPortLabel cell_$auto$ff.cc:266:slice$86">C</text>
    </g>
    <g transform="translate(0,30)" s:x="0" s:y="10" s:pid="in0" id="port_$auto$ff.cc:266:slice$86~D">
      <text x="-3" y="-4" class="inputPortLabel cell_$auto$ff.cc:266:slice$86">D</text>
    </g>
    <g transform="translate(0,50)" s:x="0" s:y="10" s:pid="in0" id="port_$auto$ff.cc:266:slice$86~R">
      <text x="-3" y="-4" class="inputPortLabel cell_$auto$ff.cc:266:slice$86">R</text>
    </g>
    <g transform="translate(30,10)" s:x="30" s:y="10" s:pid="out0" id="port_$auto$ff.cc:266:slice$86~Q">
      <text x="5" y="-4" style="fill:#000; stroke:none" class="cell_$auto$ff.cc:266:slice$86">Q</text>
    </g>
  </g>
  <g s:type="generic" transform="translate(204,670)" s:width="30" s:height="40" id="cell_$auto$ff.cc:266:slice$87">
    <text x="15" y="-4" class="nodelabel cell_$auto$ff.cc:266:slice$87" s:attribute="ref">$_DFF_PP0_</text>
    <rect width="30" height="60" s:generic="body" class="cell_$auto$ff.cc:266:slice$87"/>
    <g transform="translate(0,10)" s:x="0" s:y="10" s:pid="in0" id="port_$auto$ff.cc:266:slice$87~C">
      <text x="-3" y="-4" class="inputPortLabel cell_$auto$ff.cc:266:slice$87">C</text>
    </g>
    <g transform="translate(0,30)" s:x="0" s:y="10" s:pid="in0" id="port_$auto$ff.cc:266:slice$87~D">
      <text x="-3" y="-4" class="inputPortLabel cell_$auto$ff.cc:266:slice$87">D</text>
    </g>
    <g transform="translate(0,50)" s:x="0" s:y="10" s:pid="in0" id="port_$auto$ff.cc:266:slice$87~R">
      <text x="-3" y="-4" class="inputPortLabel cell_$auto$ff.cc:266:slice$87">R</text>
    </g>
    <g transform="translate(30,10)" s:x="30" s:y="10" s:pid="out0" id="port_$auto$ff.cc:266:slice$87~Q">
      <text x="5" y="-4" style="fill:#000; stroke:none" class="cell_$auto$ff.cc:266:slice$87">Q</text>
    </g>
  </g>
  <g s:type="generic" transform="translate(204,778)" s:width="30" s:height="40" id="cell_$auto$ff.cc:266:slice$88">
    <text x="15" y="-4" class="nodelabel cell_$auto$ff.cc:266:slice$88" s:attribute="ref">$_DFF_PP0_</text>
    <rect width="30" height="60" s:generic="body" class="cell_$auto$ff.cc:266:slice$88"/>
    <g transform="translate(0,10)" s:x="0" s:y="10" s:pid="in0" id="port_$auto$ff.cc:266:slice$88~C">
      <text x="-3" y="-4" class="inputPortLabel cell_$auto$ff.cc:266:slice$88">C</text>
    </g>
    <g transform="translate(0,30)" s:x="0" s:y="10" s:pid="in0" id="port_$auto$ff.cc:266:slice$88~D">
      <text x="-3" y="-4" class="inputPortLabel cell_$auto$ff.cc:266:slice$88">D</text>
    </g>
    <g transform="translate(0,50)" s:x="0" s:y="10" s:pid="in0" id="port_$auto$ff.cc:266:slice$88~R">
      <text x="-3" y="-4" class="inputPortLabel cell_$auto$ff.cc:266:slice$88">R</text>
    </g>
    <g transform="translate(30,10)" s:x="30" s:y="10" s:pid="out0" id="port_$auto$ff.cc:266:slice$88~Q">
      <text x="5" y="-4" style="fill:#000; stroke:none" class="cell_$auto$ff.cc:266:slice$88">Q</text>
    </g>
  </g>
  <g s:type="inputExt" transform="translate(77,346.5)" s:width="30" s:height="20" id="cell_clk">
    <text x="15" y="-4" class="nodelabel cell_clk" s:attribute="ref">clk</text>
    <s:alias val="$_inputExt_"/>
    <path d="M0,0 L0,20 L15,20 L30,10 L15,0 Z" class="cell_clk"/>
    <g s:x="28" s:y="10" s:pid="Y"/>
  </g>
  <g s:type="inputExt" transform="translate(77,494.5)" s:width="30" s:height="20" id="cell_reset">
    <text x="15" y="-4" class="nodelabel cell_reset" s:attribute="ref">reset</text>
    <s:alias val="$_inputExt_"/>
    <path d="M0,0 L0,20 L15,20 L30,10 L15,0 Z" class="cell_reset"/>
    <g s:x="28" s:y="10" s:pid="Y"/>
  </g>
  <g s:type="inputExt" transform="translate(12,547)" s:width="30" s:height="20" id="cell_Q">
    <text x="15" y="-4" class="nodelabel cell_Q" s:attribute="ref">Q</text>
    <s:alias val="$_inputExt_"/>
    <path d="M0,0 L0,20 L15,20 L30,10 L15,0 Z" class="cell_Q"/>
    <g s:x="28" s:y="10" s:pid="Y"/>
  </g>
  <g s:type="outputExt" transform="translate(451,120.5)" s:width="30" s:height="20" id="cell_D">
    <text x="15" y="-4" class="nodelabel cell_D" s:attribute="ref">D</text>
    <s:alias val="$_outputExt_"/>
    <path d="M30,0 L30,20 L15,20 L0,10 L15,0 Z" class="cell_D"/>
    <g s:x="0" s:y="10" s:pid="A"/>
  </g>
  <g s:type="join" transform="translate(408,110)" s:width="4" s:height="40" id="cell_$join$,12,13,14,15,16,17,18,19,">
    <rect width="5" height="160" class="splitjoinBody" s:generic="body"/>
    <s:alias val="$_join_"/>
    <g s:x="5" s:y="20" s:pid="out"/>
    <g transform="translate(0,10)" s:x="0" s:y="10" s:pid="in0">
      <text x="-3" y="-4" class="inputPortLabel">0</text>
    </g>
    <g transform="translate(0,30)" s:x="0" s:y="10" s:pid="in0">
      <text x="-3" y="-4" class="inputPortLabel">1</text>
    </g>
    <g transform="translate(0,50)" s:x="0" s:y="10" s:pid="in0">
      <text x="-3" y="-4" class="inputPortLabel">2</text>
    </g>
    <g transform="translate(0,70)" s:x="0" s:y="10" s:pid="in0">
      <text x="-3" y="-4" class="inputPortLabel">3</text>
    </g>
    <g transform="translate(0,90)" s:x="0" s:y="10" s:pid="in0">
      <text x="-3" y="-4" class="inputPortLabel">4</text>
    </g>
    <g transform="translate(0,110)" s:x="0" s:y="10" s:pid="in0">
      <text x="-3" y="-4" class="inputPortLabel">5</text>
    </g>
    <g transform="translate(0,130)" s:x="0" s:y="10" s:pid="in0">
      <text x="-3" y="-4" class="inputPortLabel">6</text>
    </g>
    <g transform="translate(0,150)" s:x="0" s:y="10" s:pid="in0">
      <text x="-3" y="-4" class="inputPortLabel">7</text>
    </g>
  </g>
  <g s:type="split" transform="translate(93.42857142857143,536.5)" s:width="5" s:height="40" id="cell_$split$,4,5,6,7,8,9,10,11,">
    <rect width="5" height="160" class="splitjoinBody" s:generic="body"/>
    <s:alias val="$_split_"/>
    <g s:x="0" s:y="20" s:pid="in"/>
    <g transform="translate(4,10)" s:x="4" s:y="10" s:pid="out0">
      <text x="5" y="-4">0</text>
    </g>
    <g transform="translate(4,30)" s:x="4" s:y="10" s:pid="out0">
      <text x="5" y="-4">1</text>
    </g>
    <g transform="translate(4,50)" s:x="4" s:y="10" s:pid="out0">
      <text x="5" y="-4">2</text>
    </g>
    <g transform="translate(4,70)" s:x="4" s:y="10" s:pid="out0">
      <text x="5" y="-4">3</text>
    </g>
    <g transform="translate(4,90)" s:x="4" s:y="10" s:pid="out0">
      <text x="5" y="-4">4</text>
    </g>
    <g transform="translate(4,110)" s:x="4" s:y="10" s:pid="out0">
      <text x="5" y="-4">5</text>
    </g>
    <g transform="translate(4,130)" s:x="4" s:y="10" s:pid="out0">
      <text x="5" y="-4">6</text>
    </g>
    <g transform="translate(4,150)" s:x="4" s:y="10" s:pid="out0">
      <text x="5" y="-4">7</text>
    </g>
  </g>
  <line x1="105" x2="187" y1="356.5" y2="356.5" class="net_2"/>
  <line x1="187" x2="187" y1="356.5" y2="32.5" class="net_2"/>
  <circle cx="187" cy="356.5" r="2" style="fill:#000" class="net_2"/>
  <line x1="187" x2="204" y1="32.5" y2="32.5" class="net_2"/>
  <line x1="105" x2="187" y1="356.5" y2="356.5" class="net_2"/>
  <line x1="187" x2="187" y1="356.5" y2="140.5" class="net_2"/>
  <circle cx="187" cy="140.5" r="2" style="fill:#000" class="net_2"/>
  <line x1="187" x2="204" y1="140.5" y2="140.5" class="net_2"/>
  <line x1="105" x2="187" y1="356.5" y2="356.5" class="net_2"/>
  <line x1="187" x2="187" y1="356.5" y2="248.5" class="net_2"/>
  <circle cx="187" cy="248.5" r="2" style="fill:#000" class="net_2"/>
  <line x1="187" x2="204" y1="248.5" y2="248.5" class="net_2"/>
  <line x1="105" x2="204" y1="356.5" y2="356.5" class="net_2"/>
  <line x1="105" x2="187" y1="356.5" y2="356.5" class="net_2"/>
  <line x1="187" x2="187" y1="356.5" y2="464.5" class="net_2"/>
  <circle cx="187" cy="464.5" r="2" style="fill:#000" class="net_2"/>
  <line x1="187" x2="204" y1="464.5" y2="464.5" class="net_2"/>
  <line x1="105" x2="187" y1="356.5" y2="356.5" class="net_2"/>
  <line x1="187" x2="187" y1="356.5" y2="572.5" class="net_2"/>
  <circle cx="187" cy="572.5" r="2" style="fill:#000" class="net_2"/>
  <line x1="187" x2="204" y1="572.5" y2="572.5" class="net_2"/>
  <line x1="105" x2="187" y1="356.5" y2="356.5" class="net_2"/>
  <line x1="187" x2="187" y1="356.5" y2="680.5" class="net_2"/>
  <circle cx="187" cy="680.5" r="2" style="fill:#000" class="net_2"/>
  <line x1="187" x2="204" y1="680.5" y2="680.5" class="net_2"/>
  <line x1="105" x2="187" y1="356.5" y2="356.5" class="net_2"/>
  <line x1="187" x2="187" y1="356.5" y2="788.5" class="net_2"/>
  <line x1="187" x2="204" y1="788.5" y2="788.5" class="net_2"/>
  <line x1="97.92857142857143" x2="97.92857142857143" y1="546.5" y2="524.5" class="net_4"/>
  <line x1="97.92857142857143" x2="117" y1="524.5" y2="524.5" class="net_4"/>
  <line x1="117" x2="117" y1="524.5" y2="52.5" class="net_4"/>
  <line x1="117" x2="204" y1="52.5" y2="52.5" class="net_4"/>
  <line x1="105" x2="177" y1="504.5" y2="504.5" class="net_3"/>
  <line x1="177" x2="177" y1="504.5" y2="72.5" class="net_3"/>
  <circle cx="177" cy="504.5" r="2" style="fill:#000" class="net_3"/>
  <line x1="177" x2="204" y1="72.5" y2="72.5" class="net_3"/>
  <line x1="105" x2="177" y1="504.5" y2="504.5" class="net_3"/>
  <line x1="177" x2="177" y1="504.5" y2="180.5" class="net_3"/>
  <circle cx="177" cy="180.5" r="2" style="fill:#000" class="net_3"/>
  <line x1="177" x2="204" y1="180.5" y2="180.5" class="net_3"/>
  <line x1="105" x2="177" y1="504.5" y2="504.5" class="net_3"/>
  <line x1="177" x2="177" y1="504.5" y2="288.5" class="net_3"/>
  <circle cx="177" cy="288.5" r="2" style="fill:#000" class="net_3"/>
  <line x1="177" x2="204" y1="288.5" y2="288.5" class="net_3"/>
  <line x1="105" x2="177" y1="504.5" y2="504.5" class="net_3"/>
  <line x1="177" x2="177" y1="504.5" y2="396.5" class="net_3"/>
  <circle cx="177" cy="396.5" r="2" style="fill:#000" class="net_3"/>
  <line x1="177" x2="204" y1="396.5" y2="396.5" class="net_3"/>
  <line x1="105" x2="204" y1="504.5" y2="504.5" class="net_3"/>
  <line x1="105" x2="177" y1="504.5" y2="504.5" class="net_3"/>
  <line x1="177" x2="177" y1="504.5" y2="612.5" class="net_3"/>
  <circle cx="177" cy="612.5" r="2" style="fill:#000" class="net_3"/>
  <line x1="177" x2="204" y1="612.5" y2="612.5" class="net_3"/>
  <line x1="105" x2="177" y1="504.5" y2="504.5" class="net_3"/>
  <line x1="177" x2="177" y1="504.5" y2="720.5" class="net_3"/>
  <circle cx="177" cy="720.5" r="2" style="fill:#000" class="net_3"/>
  <line x1="177" x2="204" y1="720.5" y2="720.5" class="net_3"/>
  <line x1="105" x2="177" y1="504.5" y2="504.5" class="net_3"/>
  <line x1="177" x2="177" y1="504.5" y2="828.5" class="net_3"/>
  <line x1="177" x2="204" y1="828.5" y2="828.5" class="net_3"/>
  <line x1="98.42857142857143" x2="127" y1="567" y2="567" class="net_5"/>
  <line x1="127" x2="127" y1="567" y2="160.5" class="net_5"/>
  <line x1="127" x2="204" y1="160.5" y2="160.5" class="net_5"/>
  <line x1="98.42857142857143" x2="137" y1="587" y2="587" class="net_6"/>
  <line x1="137" x2="137" y1="587" y2="268.5" class="net_6"/>
  <line x1="137" x2="204" y1="268.5" y2="268.5" class="net_6"/>
  <line x1="98.42857142857143" x2="147" y1="607" y2="607" class="net_7"/>
  <line x1="147" x2="147" y1="607" y2="376.5" class="net_7"/>
  <line x1="147" x2="204" y1="376.5" y2="376.5" class="net_7"/>
  <line x1="98.42857142857143" x2="157" y1="627" y2="627" class="net_8"/>
  <line x1="157" x2="157" y1="627" y2="484.5" class="net_8"/>
  <line x1="157" x2="204" y1="484.5" y2="484.5" class="net_8"/>
  <line x1="98.42857142857143" x2="167" y1="647" y2="647" class="net_9"/>
  <line x1="167" x2="167" y1="647" y2="592.5" class="net_9"/>
  <line x1="167" x2="204" y1="592.5" y2="592.5" class="net_9"/>
  <line x1="98.42857142857143" x2="117" y1="667" y2="667" class="net_10"/>
  <line x1="117" x2="117" y1="667" y2="700.5" class="net_10"/>
  <line x1="117" x2="204" y1="700.5" y2="700.5" class="net_10"/>
  <line x1="97.92857142857143" x2="97.92857142857143" y1="687.5" y2="808.5" class="net_11"/>
  <line x1="97.92857142857143" x2="204" y1="808.5" y2="808.5" class="net_11"/>
  <line x1="414" x2="451" y1="130.5" y2="130.5" class="net_12,13,14,15,16,17,18,19"/>
  <line x1="235" x2="408.5" y1="32.5" y2="32.5" class="net_12"/>
  <line x1="408.5" x2="408.5" y1="32.5" y2="120" class="net_12"/>
  <line x1="235" x2="408" y1="140.5" y2="140.5" class="net_13"/>
  <line x1="235" x2="358" y1="248.5" y2="248.5" class="net_14"/>
  <line x1="358" x2="358" y1="248.5" y2="160.5" class="net_14"/>
  <line x1="358" x2="408" y1="160.5" y2="160.5" class="net_14"/>
  <line x1="235" x2="368" y1="356.5" y2="356.5" class="net_15"/>
  <line x1="368" x2="368" y1="356.5" y2="180.5" class="net_15"/>
  <line x1="368" x2="408" y1="180.5" y2="180.5" class="net_15"/>
  <line x1="235" x2="378" y1="464.5" y2="464.5" class="net_16"/>
  <line x1="378" x2="378" y1="464.5" y2="200.5" class="net_16"/>
  <line x1="378" x2="408" y1="200.5" y2="200.5" class="net_16"/>
  <line x1="235" x2="388" y1="572.5" y2="572.5" class="net_17"/>
  <line x1="388" x2="388" y1="572.5" y2="220.5" class="net_17"/>
  <line x1="388" x2="408" y1="220.5" y2="220.5" class="net_17"/>
  <line x1="235" x2="398" y1="680.5" y2="680.5" class="net_18"/>
  <line x1="398" x2="398" y1="680.5" y2="240.5" class="net_18"/>
  <line x1="398" x2="408" y1="240.5" y2="240.5" class="net_18"/>
  <line x1="235" x2="408.5" y1="788.5" y2="788.5" class="net_19"/>
  <line x1="408.5" x2="408.5" y1="788.5" y2="261" class="net_19"/>
  <line x1="40" x2="93.42857142857143" y1="557" y2="557" class="net_4,5,6,7,8,9,10,11"/>
</svg>
