<svg xmlns="http://www.w3.org/2000/svg" xmlns:xlink="http://www.w3.org/1999/xlink" xmlns:s="https://github.com/nturley/netlistsvg" width="903" height="575">
  <style>svg {
    stroke:#000;
    fill:none;
  }
  text {
    fill:#000;
    stroke:none;
    font-size:10px;
    font-weight: bold;
    font-family: "Courier New", monospace;
  }
  .nodelabel {
    text-anchor: middle;
  }
  .inputPortLabel {
    text-anchor: end;
  }
  .splitjoinBody {
    fill:#000;
  }</style>
  <g s:type="not" transform="translate(289,348.5)" s:width="30" s:height="20" id="cell_$abc$295$auto$blifparse.cc:397:parse_blif$296">
    <s:alias val="$_NOT_"/>
    <s:alias val="$not"/>
    <s:alias val="$logic_not"/>
    <path d="M0,0 L0,20 L20,10 Z" class="cell_$abc$295$auto$blifparse.cc:397:parse_blif$296"/>
    <circle cx="23" cy="10" r="3" class="cell_$abc$295$auto$blifparse.cc:397:parse_blif$296"/>
    <g s:x="0" s:y="10" s:pid="A"/>
    <g s:x="25" s:y="10" s:pid="Y"/>
  </g>
  <g s:type="nand" transform="translate(289,162.5)" s:width="30" s:height="25" id="cell_$abc$295$auto$blifparse.cc:397:parse_blif$297">
    <s:alias val="$nand"/>
    <s:alias val="$logic_nand"/>
    <s:alias val="$_NAND_"/>
    <s:alias val="$_ANDNOT_"/>
    <path d="M0,0 L0,25 L15,25 A15 12.5 0 0 0 15,0 Z" class="cell_$abc$295$auto$blifparse.cc:397:parse_blif$297"/>
    <circle cx="34" cy="12.5" r="3" class="cell_$abc$295$auto$blifparse.cc:397:parse_blif$297"/>
    <g s:x="0" s:y="5" s:pid="A"/>
    <g s:x="0" s:y="20" s:pid="B"/>
    <g s:x="36" s:y="12.5" s:pid="Y"/>
  </g>
  <g s:type="nand" transform="translate(360,155)" s:width="30" s:height="25" id="cell_$abc$295$auto$blifparse.cc:397:parse_blif$298">
    <s:alias val="$nand"/>
    <s:alias val="$logic_nand"/>
    <s:alias val="$_NAND_"/>
    <s:alias val="$_ANDNOT_"/>
    <path d="M0,0 L0,25 L15,25 A15 12.5 0 0 0 15,0 Z" class="cell_$abc$295$auto$blifparse.cc:397:parse_blif$298"/>
    <circle cx="34" cy="12.5" r="3" class="cell_$abc$295$auto$blifparse.cc:397:parse_blif$298"/>
    <g s:x="0" s:y="5" s:pid="A"/>
    <g s:x="0" s:y="20" s:pid="B"/>
    <g s:x="36" s:y="12.5" s:pid="Y"/>
  </g>
  <g s:type="not" transform="translate(581,114)" s:width="30" s:height="20" id="cell_$abc$295$auto$blifparse.cc:397:parse_blif$299">
    <s:alias val="$_NOT_"/>
    <s:alias val="$not"/>
    <s:alias val="$logic_not"/>
    <path d="M0,0 L0,20 L20,10 Z" class="cell_$abc$295$auto$blifparse.cc:397:parse_blif$299"/>
    <circle cx="23" cy="10" r="3" class="cell_$abc$295$auto$blifparse.cc:397:parse_blif$299"/>
    <g s:x="0" s:y="10" s:pid="A"/>
    <g s:x="25" s:y="10" s:pid="Y"/>
  </g>
  <g s:type="or" transform="translate(291,222.5)" s:width="30" s:height="25" id="cell_$abc$295$auto$blifparse.cc:397:parse_blif$300">
    <s:alias val="$or"/>
    <s:alias val="$logic_or"/>
    <s:alias val="$_OR_"/>
    <path d="M0,25 L0,25 L15,25 A15 12.5 0 0 0 15,0 L0,0" class="cell_$abc$295$auto$blifparse.cc:397:parse_blif$300"/>
    <path d="M0,0 A30 25 0 0 1 0,25" class="cell_$abc$295$auto$blifparse.cc:397:parse_blif$300"/>
    <g s:x="3" s:y="5" s:pid="A"/>
    <g s:x="3" s:y="20" s:pid="B"/>
    <g s:x="30" s:y="12.5" s:pid="Y"/>
  </g>
  <g s:type="nand" transform="translate(360,215)" s:width="30" s:height="25" id="cell_$abc$295$auto$blifparse.cc:397:parse_blif$301">
    <s:alias val="$nand"/>
    <s:alias val="$logic_nand"/>
    <s:alias val="$_NAND_"/>
    <s:alias val="$_ANDNOT_"/>
    <path d="M0,0 L0,25 L15,25 A15 12.5 0 0 0 15,0 Z" class="cell_$abc$295$auto$blifparse.cc:397:parse_blif$301"/>
    <circle cx="34" cy="12.5" r="3" class="cell_$abc$295$auto$blifparse.cc:397:parse_blif$301"/>
    <g s:x="0" s:y="5" s:pid="A"/>
    <g s:x="0" s:y="20" s:pid="B"/>
    <g s:x="36" s:y="12.5" s:pid="Y"/>
  </g>
  <g s:type="or" transform="translate(433,222.5)" s:width="30" s:height="25" id="cell_$abc$295$auto$blifparse.cc:397:parse_blif$302">
    <s:alias val="$or"/>
    <s:alias val="$logic_or"/>
    <s:alias val="$_OR_"/>
    <path d="M0,25 L0,25 L15,25 A15 12.5 0 0 0 15,0 L0,0" class="cell_$abc$295$auto$blifparse.cc:397:parse_blif$302"/>
    <path d="M0,0 A30 25 0 0 1 0,25" class="cell_$abc$295$auto$blifparse.cc:397:parse_blif$302"/>
    <g s:x="3" s:y="5" s:pid="A"/>
    <g s:x="3" s:y="20" s:pid="B"/>
    <g s:x="30" s:y="12.5" s:pid="Y"/>
  </g>
  <g s:type="reduce_nor" transform="translate(360,373.5)" s:width="33" s:height="25" id="cell_$abc$295$auto$blifparse.cc:397:parse_blif$303">
    <s:alias val="$nor"/>
    <s:alias val="$reduce_nor"/>
    <s:alias val="$_NOR_"/>
    <s:alias val="$_ORNOT_"/>
    <path d="M0,25 L0,25 L15,25 A15 12.5 0 0 0 15,0 L0,0" class="cell_$abc$295$auto$blifparse.cc:397:parse_blif$303"/>
    <path d="M0,0 A30 25 0 0 1 0,25" class="cell_$abc$295$auto$blifparse.cc:397:parse_blif$303"/>
    <circle cx="34" cy="12.5" r="3" class="cell_$abc$295$auto$blifparse.cc:397:parse_blif$303"/>
    <g s:x="3" s:y="5" s:pid="A"/>
    <g s:x="3" s:y="20" s:pid="B"/>
    <g s:x="36" s:y="12.5" s:pid="Y"/>
  </g>
  <g s:type="nand" transform="translate(431,323.5)" s:width="30" s:height="25" id="cell_$abc$295$auto$blifparse.cc:397:parse_blif$304">
    <s:alias val="$nand"/>
    <s:alias val="$logic_nand"/>
    <s:alias val="$_NAND_"/>
    <s:alias val="$_ANDNOT_"/>
    <path d="M0,0 L0,25 L15,25 A15 12.5 0 0 0 15,0 Z" class="cell_$abc$295$auto$blifparse.cc:397:parse_blif$304"/>
    <circle cx="34" cy="12.5" r="3" class="cell_$abc$295$auto$blifparse.cc:397:parse_blif$304"/>
    <g s:x="0" s:y="5" s:pid="A"/>
    <g s:x="0" s:y="20" s:pid="B"/>
    <g s:x="36" s:y="12.5" s:pid="Y"/>
  </g>
  <g s:type="reduce_nor" transform="translate(431,481.5)" s:width="33" s:height="25" id="cell_$abc$295$auto$blifparse.cc:397:parse_blif$305">
    <s:alias val="$nor"/>
    <s:alias val="$reduce_nor"/>
    <s:alias val="$_NOR_"/>
    <s:alias val="$_ORNOT_"/>
    <path d="M0,25 L0,25 L15,25 A15 12.5 0 0 0 15,0 L0,0" class="cell_$abc$295$auto$blifparse.cc:397:parse_blif$305"/>
    <path d="M0,0 A30 25 0 0 1 0,25" class="cell_$abc$295$auto$blifparse.cc:397:parse_blif$305"/>
    <circle cx="34" cy="12.5" r="3" class="cell_$abc$295$auto$blifparse.cc:397:parse_blif$305"/>
    <g s:x="3" s:y="5" s:pid="A"/>
    <g s:x="3" s:y="20" s:pid="B"/>
    <g s:x="36" s:y="12.5" s:pid="Y"/>
  </g>
  <g s:type="nand" transform="translate(507,474)" s:width="30" s:height="25" id="cell_$abc$295$auto$blifparse.cc:397:parse_blif$306">
    <s:alias val="$nand"/>
    <s:alias val="$logic_nand"/>
    <s:alias val="$_NAND_"/>
    <s:alias val="$_ANDNOT_"/>
    <path d="M0,0 L0,25 L15,25 A15 12.5 0 0 0 15,0 Z" class="cell_$abc$295$auto$blifparse.cc:397:parse_blif$306"/>
    <circle cx="34" cy="12.5" r="3" class="cell_$abc$295$auto$blifparse.cc:397:parse_blif$306"/>
    <g s:x="0" s:y="5" s:pid="A"/>
    <g s:x="0" s:y="20" s:pid="B"/>
    <g s:x="36" s:y="12.5" s:pid="Y"/>
  </g>
  <g s:type="mux" transform="translate(711,225)" s:width="20" s:height="40" id="cell_$abc$295$auto$blifparse.cc:397:parse_blif$307">
    <s:alias val="$pmux"/>
    <s:alias val="$mux"/>
    <s:alias val="$_MUX_"/>
    <path d="M0,0 L20,10 L20,30 L0,40 Z" class="cell_$abc$295$auto$blifparse.cc:397:parse_blif$307"/>
    <g s:x="0" s:y="10" s:pid="A"/>
    <g s:x="0" s:y="30" s:pid="B"/>
    <g s:x="10" s:y="35" s:pid="S"/>
    <g s:x="20" s:y="20" s:pid="Y"/>
  </g>
  <g s:type="reduce_nor" transform="translate(507,331)" s:width="33" s:height="25" id="cell_$abc$295$auto$blifparse.cc:397:parse_blif$308">
    <s:alias val="$nor"/>
    <s:alias val="$reduce_nor"/>
    <s:alias val="$_NOR_"/>
    <s:alias val="$_ORNOT_"/>
    <path d="M0,25 L0,25 L15,25 A15 12.5 0 0 0 15,0 L0,0" class="cell_$abc$295$auto$blifparse.cc:397:parse_blif$308"/>
    <path d="M0,0 A30 25 0 0 1 0,25" class="cell_$abc$295$auto$blifparse.cc:397:parse_blif$308"/>
    <circle cx="34" cy="12.5" r="3" class="cell_$abc$295$auto$blifparse.cc:397:parse_blif$308"/>
    <g s:x="3" s:y="5" s:pid="A"/>
    <g s:x="3" s:y="20" s:pid="B"/>
    <g s:x="36" s:y="12.5" s:pid="Y"/>
  </g>
  <g s:type="nand" transform="translate(578,338.5)" s:width="30" s:height="25" id="cell_$abc$295$auto$blifparse.cc:397:parse_blif$309">
    <s:alias val="$nand"/>
    <s:alias val="$logic_nand"/>
    <s:alias val="$_NAND_"/>
    <s:alias val="$_ANDNOT_"/>
    <path d="M0,0 L0,25 L15,25 A15 12.5 0 0 0 15,0 Z" class="cell_$abc$295$auto$blifparse.cc:397:parse_blif$309"/>
    <circle cx="34" cy="12.5" r="3" class="cell_$abc$295$auto$blifparse.cc:397:parse_blif$309"/>
    <g s:x="0" s:y="5" s:pid="A"/>
    <g s:x="0" s:y="20" s:pid="B"/>
    <g s:x="36" s:y="12.5" s:pid="Y"/>
  </g>
  <g s:type="mux" transform="translate(649,479)" s:width="20" s:height="40" id="cell_$abc$295$auto$blifparse.cc:397:parse_blif$310">
    <s:alias val="$pmux"/>
    <s:alias val="$mux"/>
    <s:alias val="$_MUX_"/>
    <path d="M0,0 L20,10 L20,30 L0,40 Z" class="cell_$abc$295$auto$blifparse.cc:397:parse_blif$310"/>
    <g s:x="0" s:y="10" s:pid="A"/>
    <g s:x="0" s:y="30" s:pid="B"/>
    <g s:x="10" s:y="35" s:pid="S"/>
    <g s:x="20" s:y="20" s:pid="Y"/>
  </g>
  <g s:type="nand" transform="translate(711,494)" s:width="30" s:height="25" id="cell_$abc$295$auto$blifparse.cc:397:parse_blif$311">
    <s:alias val="$nand"/>
    <s:alias val="$logic_nand"/>
    <s:alias val="$_NAND_"/>
    <s:alias val="$_ANDNOT_"/>
    <path d="M0,0 L0,25 L15,25 A15 12.5 0 0 0 15,0 Z" class="cell_$abc$295$auto$blifparse.cc:397:parse_blif$311"/>
    <circle cx="34" cy="12.5" r="3" class="cell_$abc$295$auto$blifparse.cc:397:parse_blif$311"/>
    <g s:x="0" s:y="5" s:pid="A"/>
    <g s:x="0" s:y="20" s:pid="B"/>
    <g s:x="36" s:y="12.5" s:pid="Y"/>
  </g>
  <g s:type="nand" transform="translate(578,54)" s:width="30" s:height="25" id="cell_$abc$295$auto$blifparse.cc:397:parse_blif$312">
    <s:alias val="$nand"/>
    <s:alias val="$logic_nand"/>
    <s:alias val="$_NAND_"/>
    <s:alias val="$_ANDNOT_"/>
    <path d="M0,0 L0,25 L15,25 A15 12.5 0 0 0 15,0 Z" class="cell_$abc$295$auto$blifparse.cc:397:parse_blif$312"/>
    <circle cx="34" cy="12.5" r="3" class="cell_$abc$295$auto$blifparse.cc:397:parse_blif$312"/>
    <g s:x="0" s:y="5" s:pid="A"/>
    <g s:x="0" s:y="20" s:pid="B"/>
    <g s:x="36" s:y="12.5" s:pid="Y"/>
  </g>
  <g s:type="mux" transform="translate(649,94)" s:width="20" s:height="40" id="cell_$abc$295$auto$blifparse.cc:397:parse_blif$313">
    <s:alias val="$pmux"/>
    <s:alias val="$mux"/>
    <s:alias val="$_MUX_"/>
    <path d="M0,0 L20,10 L20,30 L0,40 Z" class="cell_$abc$295$auto$blifparse.cc:397:parse_blif$313"/>
    <g s:x="0" s:y="10" s:pid="A"/>
    <g s:x="0" s:y="30" s:pid="B"/>
    <g s:x="10" s:y="35" s:pid="S"/>
    <g s:x="20" s:y="20" s:pid="Y"/>
  </g>
  <g s:type="generic" transform="translate(99,368)" s:width="30" s:height="40" id="cell_$auto$ff.cc:266:slice$256">
    <text x="15" y="-4" class="nodelabel cell_$auto$ff.cc:266:slice$256" s:attribute="ref">$_DFF_PP0_</text>
    <rect width="30" height="60" s:generic="body" class="cell_$auto$ff.cc:266:slice$256"/>
    <g transform="translate(0,10)" s:x="0" s:y="10" s:pid="in0" id="port_$auto$ff.cc:266:slice$256~C">
      <text x="-3" y="-4" class="inputPortLabel cell_$auto$ff.cc:266:slice$256">C</text>
    </g>
    <g transform="translate(0,30)" s:x="0" s:y="10" s:pid="in0" id="port_$auto$ff.cc:266:slice$256~D">
      <text x="-3" y="-4" class="inputPortLabel cell_$auto$ff.cc:266:slice$256">D</text>
    </g>
    <g transform="translate(0,50)" s:x="0" s:y="10" s:pid="in0" id="port_$auto$ff.cc:266:slice$256~R">
      <text x="-3" y="-4" class="inputPortLabel cell_$auto$ff.cc:266:slice$256">R</text>
    </g>
    <g transform="translate(30,10)" s:x="30" s:y="10" s:pid="out0" id="port_$auto$ff.cc:266:slice$256~Q">
      <text x="5" y="-4" style="fill:#000; stroke:none" class="cell_$auto$ff.cc:266:slice$256">Q</text>
    </g>
  </g>
  <g s:type="generic" transform="translate(99,476)" s:width="30" s:height="40" id="cell_$auto$ff.cc:266:slice$257">
    <text x="15" y="-4" class="nodelabel cell_$auto$ff.cc:266:slice$257" s:attribute="ref">$_DFF_PP0_</text>
    <rect width="30" height="60" s:generic="body" class="cell_$auto$ff.cc:266:slice$257"/>
    <g transform="translate(0,10)" s:x="0" s:y="10" s:pid="in0" id="port_$auto$ff.cc:266:slice$257~C">
      <text x="-3" y="-4" class="inputPortLabel cell_$auto$ff.cc:266:slice$257">C</text>
    </g>
    <g transform="translate(0,30)" s:x="0" s:y="10" s:pid="in0" id="port_$auto$ff.cc:266:slice$257~D">
      <text x="-3" y="-4" class="inputPortLabel cell_$auto$ff.cc:266:slice$257">D</text>
    </g>
    <g transform="translate(0,50)" s:x="0" s:y="10" s:pid="in0" id="port_$auto$ff.cc:266:slice$257~R">
      <text x="-3" y="-4" class="inputPortLabel cell_$auto$ff.cc:266:slice$257">R</text>
    </g>
    <g transform="translate(30,10)" s:x="30" s:y="10" s:pid="out0" id="port_$auto$ff.cc:266:slice$257~Q">
      <text x="5" y="-4" style="fill:#000; stroke:none" class="cell_$auto$ff.cc:266:slice$257">Q</text>
    </g>
  </g>
  <g s:type="generic" transform="translate(711,93.5)" s:width="30" s:height="40" id="cell_$auto$ff.cc:266:slice$258">
    <text x="15" y="-4" class="nodelabel cell_$auto$ff.cc:266:slice$258" s:attribute="ref">$_DFF_PP1_</text>
    <rect width="30" height="60" s:generic="body" class="cell_$auto$ff.cc:266:slice$258"/>
    <g transform="translate(0,10)" s:x="0" s:y="10" s:pid="in0" id="port_$auto$ff.cc:266:slice$258~C">
      <text x="-3" y="-4" class="inputPortLabel cell_$auto$ff.cc:266:slice$258">C</text>
    </g>
    <g transform="translate(0,30)" s:x="0" s:y="10" s:pid="in0" id="port_$auto$ff.cc:266:slice$258~D">
      <text x="-3" y="-4" class="inputPortLabel cell_$auto$ff.cc:266:slice$258">D</text>
    </g>
    <g transform="translate(0,50)" s:x="0" s:y="10" s:pid="in0" id="port_$auto$ff.cc:266:slice$258~R">
      <text x="-3" y="-4" class="inputPortLabel cell_$auto$ff.cc:266:slice$258">R</text>
    </g>
    <g transform="translate(30,10)" s:x="30" s:y="10" s:pid="out0" id="port_$auto$ff.cc:266:slice$258~Q">
      <text x="5" y="-4" style="fill:#000; stroke:none" class="cell_$auto$ff.cc:266:slice$258">Q</text>
    </g>
  </g>
  <g s:type="inputExt" transform="translate(12,343.5)" s:width="30" s:height="20" id="cell_clk">
    <text x="15" y="-4" class="nodelabel cell_clk" s:attribute="ref">clk</text>
    <s:alias val="$_inputExt_"/>
    <path d="M0,0 L0,20 L15,20 L30,10 L15,0 Z" class="cell_clk"/>
    <g s:x="28" s:y="10" s:pid="Y"/>
  </g>
  <g s:type="inputExt" transform="translate(12,408.5)" s:width="30" s:height="20" id="cell_reset">
    <text x="15" y="-4" class="nodelabel cell_reset" s:attribute="ref">reset</text>
    <s:alias val="$_inputExt_"/>
    <path d="M0,0 L0,20 L15,20 L30,10 L15,0 Z" class="cell_reset"/>
    <g s:x="28" s:y="10" s:pid="Y"/>
  </g>
  <g s:type="inputExt" transform="translate(507,276)" s:width="30" s:height="20" id="cell_x">
    <text x="15" y="-4" class="nodelabel cell_x" s:attribute="ref">x</text>
    <s:alias val="$_inputExt_"/>
    <path d="M0,0 L0,20 L15,20 L30,10 L15,0 Z" class="cell_x"/>
    <g s:x="28" s:y="10" s:pid="Y"/>
  </g>
  <g s:type="outputExt" transform="translate(711,22)" s:width="30" s:height="20" id="cell_y">
    <text x="15" y="-4" class="nodelabel cell_y" s:attribute="ref">y</text>
    <s:alias val="$_outputExt_"/>
    <path d="M30,0 L30,20 L15,20 L0,10 L15,0 Z" class="cell_y"/>
    <g s:x="0" s:y="10" s:pid="A"/>
  </g>
  <line x1="742" x2="891" y1="104" y2="104" class="net_6"/>
  <line x1="891" x2="891" y1="104" y2="540" class="net_6"/>
  <line x1="891" x2="279" y1="540" y2="540" class="net_6"/>
  <line x1="279" x2="279" y1="540" y2="358.5" class="net_6"/>
  <line x1="279" x2="289" y1="358.5" y2="358.5" class="net_6"/>
  <line x1="130" x2="259" y1="378.5" y2="378.5" class="net_8"/>
  <line x1="259" x2="259" y1="378.5" y2="167.5" class="net_8"/>
  <circle cx="259" cy="378.5" r="2" style="fill:#000" class="net_8"/>
  <line x1="259" x2="289" y1="167.5" y2="167.5" class="net_8"/>
  <line x1="130" x2="259" y1="378.5" y2="378.5" class="net_8"/>
  <line x1="259" x2="259" y1="378.5" y2="227.5" class="net_8"/>
  <circle cx="259" cy="227.5" r="2" style="fill:#000" class="net_8"/>
  <line x1="259" x2="294" y1="227.5" y2="227.5" class="net_8"/>
  <line x1="130" x2="363" y1="378.5" y2="378.5" class="net_8"/>
  <line x1="130" x2="259" y1="378.5" y2="378.5" class="net_8"/>
  <line x1="259" x2="259" y1="378.5" y2="501.5" class="net_8"/>
  <line x1="259" x2="434" y1="501.5" y2="501.5" class="net_8"/>
  <line x1="130" x2="269" y1="486.5" y2="486.5" class="net_9"/>
  <line x1="269" x2="269" y1="486.5" y2="182.5" class="net_9"/>
  <circle cx="269" cy="486.5" r="2" style="fill:#000" class="net_9"/>
  <line x1="269" x2="289" y1="182.5" y2="182.5" class="net_9"/>
  <line x1="130" x2="269" y1="486.5" y2="486.5" class="net_9"/>
  <line x1="269" x2="269" y1="486.5" y2="242.5" class="net_9"/>
  <circle cx="269" cy="242.5" r="2" style="fill:#000" class="net_9"/>
  <line x1="269" x2="294" y1="242.5" y2="242.5" class="net_9"/>
  <line x1="130" x2="335" y1="486.5" y2="486.5" class="net_9"/>
  <line x1="335" x2="335" y1="486.5" y2="393.5" class="net_9"/>
  <circle cx="335" cy="486.5" r="2" style="fill:#000" class="net_9"/>
  <line x1="335" x2="363" y1="393.5" y2="393.5" class="net_9"/>
  <line x1="130" x2="434" y1="486.5" y2="486.5" class="net_9"/>
  <line x1="314" x2="335" y1="358.5" y2="358.5" class="net_7"/>
  <line x1="335" x2="335" y1="358.5" y2="160" class="net_7"/>
  <circle cx="335" cy="358.5" r="2" style="fill:#000" class="net_7"/>
  <line x1="335" x2="360" y1="160" y2="160" class="net_7"/>
  <line x1="314" x2="335" y1="358.5" y2="358.5" class="net_7"/>
  <line x1="335" x2="335" y1="358.5" y2="220" class="net_7"/>
  <circle cx="335" cy="220" r="2" style="fill:#000" class="net_7"/>
  <line x1="335" x2="360" y1="220" y2="220" class="net_7"/>
  <line x1="314" x2="406" y1="358.5" y2="358.5" class="net_7"/>
  <line x1="406" x2="406" y1="358.5" y2="328.5" class="net_7"/>
  <circle cx="406" cy="358.5" r="2" style="fill:#000" class="net_7"/>
  <line x1="406" x2="431" y1="328.5" y2="328.5" class="net_7"/>
  <line x1="314" x2="477" y1="358.5" y2="358.5" class="net_7"/>
  <line x1="477" x2="477" y1="358.5" y2="479" class="net_7"/>
  <line x1="477" x2="507" y1="479" y2="479" class="net_7"/>
  <line x1="325" x2="360" y1="175" y2="175" class="net_10"/>
  <line x1="535" x2="553" y1="286" y2="286" class="net_4"/>
  <line x1="553" x2="553" y1="286" y2="124" class="net_4"/>
  <circle cx="553" cy="286" r="2" style="fill:#000" class="net_4"/>
  <circle cx="553" cy="124" r="2" style="fill:#000" class="net_4"/>
  <line x1="553" x2="581" y1="124" y2="124" class="net_4"/>
  <line x1="535" x2="721" y1="286" y2="286" class="net_4"/>
  <line x1="721" x2="721" y1="286" y2="260" class="net_4"/>
  <line x1="535" x2="553" y1="286" y2="286" class="net_4"/>
  <line x1="553" x2="553" y1="286" y2="529" class="net_4"/>
  <line x1="553" x2="659" y1="529" y2="529" class="net_4"/>
  <line x1="659" x2="659" y1="529" y2="514" class="net_4"/>
  <line x1="535" x2="553" y1="286" y2="286" class="net_4"/>
  <line x1="553" x2="553" y1="286" y2="74" class="net_4"/>
  <line x1="553" x2="578" y1="74" y2="74" class="net_4"/>
  <line x1="321" x2="360" y1="235" y2="235" class="net_12"/>
  <line x1="396" x2="436" y1="227.5" y2="227.5" class="net_13"/>
  <line x1="396" x2="406" y1="167.5" y2="167.5" class="net_5"/>
  <line x1="406" x2="406" y1="167.5" y2="242.5" class="net_5"/>
  <circle cx="406" cy="167.5" r="2" style="fill:#000" class="net_5"/>
  <line x1="406" x2="436" y1="242.5" y2="242.5" class="net_5"/>
  <line x1="396" x2="406" y1="167.5" y2="167.5" class="net_5"/>
  <line x1="406" x2="406" y1="167.5" y2="32" class="net_5"/>
  <line x1="406" x2="711" y1="32" y2="32" class="net_5"/>
  <line x1="396" x2="416" y1="386" y2="386" class="net_15"/>
  <line x1="416" x2="416" y1="386" y2="343.5" class="net_15"/>
  <line x1="416" x2="431" y1="343.5" y2="343.5" class="net_15"/>
  <line x1="467" x2="507" y1="494" y2="494" class="net_17"/>
  <line x1="463" x2="711" y1="235" y2="235" class="net_14"/>
  <line x1="463" x2="497" y1="235" y2="235" class="net_14"/>
  <line x1="497" x2="497" y1="235" y2="351" class="net_14"/>
  <circle cx="497" cy="235" r="2" style="fill:#000" class="net_14"/>
  <line x1="497" x2="510" y1="351" y2="351" class="net_14"/>
  <line x1="467" x2="487" y1="336" y2="336" class="net_16"/>
  <line x1="487" x2="487" y1="336" y2="255" class="net_16"/>
  <circle cx="487" cy="336" r="2" style="fill:#000" class="net_16"/>
  <circle cx="487" cy="255" r="2" style="fill:#000" class="net_16"/>
  <line x1="487" x2="711" y1="255" y2="255" class="net_16"/>
  <line x1="467" x2="510" y1="336" y2="336" class="net_16"/>
  <line x1="467" x2="487" y1="336" y2="336" class="net_16"/>
  <line x1="487" x2="487" y1="336" y2="509" class="net_16"/>
  <line x1="487" x2="649" y1="509" y2="509" class="net_16"/>
  <line x1="467" x2="487" y1="336" y2="336" class="net_16"/>
  <line x1="487" x2="487" y1="336" y2="59" class="net_16"/>
  <line x1="487" x2="578" y1="59" y2="59" class="net_16"/>
  <line x1="543" x2="578" y1="343.5" y2="343.5" class="net_20"/>
  <line x1="543" x2="563" y1="486.5" y2="486.5" class="net_18"/>
  <line x1="563" x2="563" y1="486.5" y2="358.5" class="net_18"/>
  <circle cx="563" cy="486.5" r="2" style="fill:#000" class="net_18"/>
  <line x1="563" x2="578" y1="358.5" y2="358.5" class="net_18"/>
  <line x1="543" x2="624" y1="486.5" y2="486.5" class="net_18"/>
  <line x1="624" x2="624" y1="486.5" y2="489" class="net_18"/>
  <line x1="624" x2="649" y1="489" y2="489" class="net_18"/>
  <line x1="669" x2="711" y1="499" y2="499" class="net_22"/>
  <line x1="614" x2="679" y1="351" y2="351" class="net_21"/>
  <line x1="679" x2="679" y1="351" y2="514" class="net_21"/>
  <line x1="679" x2="711" y1="514" y2="514" class="net_21"/>
  <line x1="614" x2="624" y1="351" y2="351" class="net_21"/>
  <line x1="624" x2="624" y1="351" y2="225" class="net_21"/>
  <line x1="624" x2="659" y1="225" y2="225" class="net_21"/>
  <circle cx="624" cy="351" r="2" style="fill:#000" class="net_21"/>
  <line x1="659" x2="659" y1="225" y2="129" class="net_21"/>
  <line x1="614" x2="624" y1="66.5" y2="66.5" class="net_24"/>
  <line x1="624" x2="624" y1="66.5" y2="104" class="net_24"/>
  <line x1="624" x2="649" y1="104" y2="104" class="net_24"/>
  <line x1="606" x2="649" y1="124" y2="124" class="net_11"/>
  <line x1="40" x2="82" y1="353.5" y2="353.5" class="net_2"/>
  <line x1="82" x2="82" y1="353.5" y2="378.5" class="net_2"/>
  <circle cx="82" cy="353.5" r="2" style="fill:#000" class="net_2"/>
  <circle cx="82" cy="378.5" r="2" style="fill:#000" class="net_2"/>
  <line x1="82" x2="99" y1="378.5" y2="378.5" class="net_2"/>
  <line x1="40" x2="82" y1="353.5" y2="353.5" class="net_2"/>
  <line x1="82" x2="82" y1="353.5" y2="486.5" class="net_2"/>
  <line x1="82" x2="99" y1="486.5" y2="486.5" class="net_2"/>
  <line x1="40" x2="82" y1="353.5" y2="353.5" class="net_2"/>
  <line x1="82" x2="82" y1="353.5" y2="43" class="net_2"/>
  <line x1="82" x2="679" y1="43" y2="43" class="net_2"/>
  <line x1="679" x2="679" y1="43" y2="104" class="net_2"/>
  <line x1="679" x2="711" y1="104" y2="104" class="net_2"/>
  <line x1="731" x2="881" y1="245" y2="245" class="net_19"/>
  <line x1="881" x2="881" y1="245" y2="562" class="net_19"/>
  <line x1="881" x2="52" y1="562" y2="562" class="net_19"/>
  <line x1="52" x2="52" y1="562" y2="398.5" class="net_19"/>
  <line x1="52" x2="99" y1="398.5" y2="398.5" class="net_19"/>
  <line x1="40" x2="99" y1="418.5" y2="418.5" class="net_3"/>
  <line x1="40" x2="72" y1="418.5" y2="418.5" class="net_3"/>
  <line x1="72" x2="72" y1="418.5" y2="526.5" class="net_3"/>
  <circle cx="72" cy="418.5" r="2" style="fill:#000" class="net_3"/>
  <line x1="72" x2="99" y1="526.5" y2="526.5" class="net_3"/>
  <line x1="40" x2="72" y1="418.5" y2="418.5" class="net_3"/>
  <line x1="72" x2="72" y1="418.5" y2="144" class="net_3"/>
  <line x1="72" x2="711" y1="144" y2="144" class="net_3"/>
  <line x1="747" x2="871" y1="506.5" y2="506.5" class="net_23"/>
  <line x1="871" x2="871" y1="506.5" y2="551" class="net_23"/>
  <line x1="871" x2="62" y1="551" y2="551" class="net_23"/>
  <line x1="62" x2="62" y1="551" y2="506.5" class="net_23"/>
  <line x1="62" x2="99" y1="506.5" y2="506.5" class="net_23"/>
  <line x1="669" x2="679" y1="114" y2="114" class="net_25"/>
  <line x1="679" x2="679" y1="114" y2="124" class="net_25"/>
  <line x1="679" x2="711" y1="124" y2="124" class="net_25"/>
</svg>
